<?xml version="1.0" encoding="UTF-8"?>
<svg width="307px" height="54px" viewBox="0 0 307 54" version="1.1" xmlns="http://www.w3.org/2000/svg" xmlns:xlink="http://www.w3.org/1999/xlink">
    <title>awardco-black</title>
    <g id="Page-1" stroke="none" stroke-width="1" fill="none" fill-rule="evenodd">
        <g id="awardco-black" transform="translate(0.975000, 0.000000)" fill="#000000">
            <path d="M123.625,41.1 L112.625,12.9 L119.425,12.9 L126.125,31 L132.825,12.8 L138.725,12.8 L145.525,30.9 L152.225,12.8 L158.925,12.8 L148.325,41.1 L143.025,41.1 L135.825,22.3 L128.925,41.1 L123.625,41.1 Z M213.425,12.8 L214.025,12.9 L213.625,13.4 C212.325,14.9 211.325,16.5 210.525,18.3 L210.425,18.5 L209.925,18.5 C205.325,18.6 201.625,22.5 201.625,27.1 L201.625,41.1 L195.525,41.1 L195.525,26.7 C195.525,18.8 202.025,12.4 210.125,12.4 C211.425,12.4 212.625,12.6 213.425,12.8 L213.425,12.8 Z M175.025,35.6 C170.325,35.6 166.425,31.8 166.425,27.1 C166.425,22.4 170.225,18.5 174.925,18.5 C179.625,18.5 183.525,22.3 183.525,27 C183.525,31.7 179.725,35.6 175.025,35.6 L175.025,35.6 Z M189.525,26.5 C189.525,18.6 182.925,12.3 174.825,12.3 C166.725,12.3 160.225,18.9 160.225,27 C160.225,35.1 166.825,41.6 174.925,41.6 C180.225,41.6 183.525,38.2 183.525,38.2 L183.525,40.9 L189.625,40.9 L189.525,26.5 Z M229.125,35.6 C224.425,35.6 220.525,31.8 220.525,27.1 C220.525,22.4 224.325,18.5 229.025,18.5 C233.725,18.5 237.625,22.3 237.625,27 C237.625,31.7 233.825,35.6 229.125,35.6 L229.125,35.6 Z M243.825,0 L237.725,0 L237.725,15.1 C235.225,13.3 232.225,12.3 229.125,12.3 C221.025,12.3 214.525,18.9 214.525,27 C214.525,35.1 221.125,41.7 229.225,41.6 C237.325,41.6 243.825,35.2 243.825,27.3 L243.825,0 Z M255.125,27.1 C255.125,31.8 259.025,35.7 263.725,35.6 C265.625,35.6 267.525,35 268.925,33.8 L269.125,33.6 L270.525,32.5 L270.825,33.2 C271.325,34.7 271.925,36.2 272.725,37.5 L273.125,38.2 L272.425,38.7 C269.825,40.6 266.825,41.6 263.725,41.6 C255.625,41.6 249.025,35.1 249.025,27 C249.025,18.9 255.525,12.3 263.625,12.3 C266.625,12.3 269.625,13.2 272.125,15 L272.425,15.2 L273.125,15.7 L272.925,16 C272.125,17.3 271.425,18.8 270.925,20.3 L270.825,20.8 L270.525,21.6 L269.125,20.5 C267.625,19.2 265.625,18.5 263.625,18.5 C258.925,18.5 255.025,22.3 255.125,27.1 L255.125,27.1 Z M96.725,35.6 C92.025,35.6 88.125,31.8 88.125,27.1 C88.125,22.4 91.925,18.5 96.625,18.5 C101.325,18.5 105.225,22.3 105.225,27 C105.225,31.7 101.425,35.6 96.725,35.6 L96.725,35.6 Z M111.325,26.6 C111.325,18.7 104.725,12.4 96.625,12.4 C88.525,12.4 82.025,19 82.025,27.1 C82.025,35.2 88.625,41.7 96.725,41.7 C102.025,41.7 105.325,38.3 105.325,38.3 L105.325,41 L111.425,41 L111.325,26.6 Z M290.325,35.6 C285.625,35.6 281.725,31.8 281.725,27.1 C281.725,22.4 285.525,18.5 290.225,18.5 C294.925,18.5 298.825,22.3 298.825,27 C298.925,31.7 295.025,35.6 290.325,35.6 L290.325,35.6 Z M290.325,12.4 C282.225,12.4 275.725,19 275.725,27.1 C275.725,35.2 282.325,41.8 290.425,41.7 C298.525,41.7 305.025,35.1 305.025,27 C304.925,18.9 298.325,12.4 290.325,12.4 L290.325,12.4 Z" id="Fill-1"></path>
            <path d="M47.325,0 L44.225,5.9 C43.725,5.5 43.125,5 42.525,4.6 C31.725,-2.5 17.225,-1.1 8.025,8 C-2.675,18.5 -2.675,35.6 8.025,46.1 C13.325,51.4 20.325,54 27.425,54 C33.425,54 39.425,52.1 44.325,48.2 L47.325,53.9 L72.025,53.9 L69.625,49.5 C69.525,49.3 63.325,37.8 57.425,27 C63.325,16.1 69.625,4.4 69.625,4.4 L72.025,0 L47.325,0 Z M49.325,12.9 C49.025,12.3 48.625,11.7 48.225,11 L48.225,11 L50.825,6.2 L61.825,6.2 C59.825,9.8 56.825,15.3 53.825,20.8 L53.825,20.8 C52.025,17.7 50.525,15 49.325,12.9 L49.325,12.9 Z M12.425,41.7 C4.125,33.6 4.125,20.4 12.425,12.3 L12.425,12.3 C16.525,8.3 22.025,6.2 27.525,6.2 L27.525,6.2 C31.525,6.2 35.625,7.3 39.125,9.6 L39.125,9.6 C41.825,11.5 43.125,13.5 44.325,15.6 L44.325,15.6 C48.625,23.2 57.525,39.8 61.825,47.7 L61.825,47.7 L51.025,47.7 L37.425,22.2 C37.425,22.2 37.425,22.2 37.425,22.1 L37.425,22.1 C35.625,18.5 31.825,16 27.525,16 L27.525,16 C21.425,16 16.425,20.9 16.425,26.9 L16.425,26.9 C16.425,32.9 21.425,37.8 27.525,37.8 L27.525,37.8 C31.225,37.8 34.525,36 36.525,33.2 L36.525,33.2 L41.525,42.6 C37.525,46.1 32.525,47.8 27.525,47.8 L27.525,47.8 C22.025,47.8 16.625,45.8 12.425,41.7 L12.425,41.7 Z" id="path-1_1_"></path>
        </g>
    </g>
</svg>